<?xml version="1.0" encoding="utf-8"?>
<!-- Generator: Adobe Illustrator 23.0.0, SVG Export Plug-In . SVG Version: 6.00 Build 0)  -->
<svg version="1.1" id="Layer_1" xmlns="http://www.w3.org/2000/svg" xmlns:xlink="http://www.w3.org/1999/xlink" x="0px" y="0px"
	 viewBox="0 0 1920 1080" style="enable-background:new 0 0 1920 1080;" xml:space="preserve">
<style type="text/css">
	.st0{fill:#ffffff;}
</style>
<g>
	<g>
		<path class="st0" d="M540.04,607.92c0-59.28,0-118.56,0-177.84c198.48,0,396.96,0,595.44,0c0,59.28,0,118.56,0,177.84
			C937,607.92,738.52,607.92,540.04,607.92z M602.68,517.5c0,22.8,0,45.59,0,68.39c0,2.18,0.86,3.06,3.01,3.06
			c38.83,0,77.66,0,116.5,0c2.21,0,3.13-0.91,3.13-3.11c0-45.55,0-91.1,0-136.65c0-2.15-0.89-3.03-3.06-3.03
			c-38.83,0-77.66,0.01-116.5-0.03c-1.91,0-3.12,1.03-3.12,3.11C602.7,471.99,602.68,494.75,602.68,517.5z M1036.18,505.2
			c-0.13,3.73,1.43,6.25,4.83,7.23c2.12,0.61,4.38,0.9,6.59,0.99c3.56,0.15,7.12-0.09,10.39-1.79c3.07-1.6,4.53-4.39,4.07-7.71
			c-0.38-2.76-2.72-5.17-6.09-5.86c-1.9-0.38-3.89-0.31-5.84-0.42c-1.12-0.07-2.24-0.04-3.35-0.17c-0.92-0.11-1.45-0.72-1.29-1.68
			c0.15-0.89,0.67-1.13,1.64-1.01c3.15,0.38,6.21,0.08,9.04-1.59c4.56-2.69,5.78-10.09,0.04-12.9c-0.16-0.08-0.29-0.2-0.62-0.44
			c2.47-0.14,4.74-0.13,6.87-1.09c-0.62-1.91-1.2-3.71-1.82-5.61c-3.52,2.2-7.17,3.33-11.15,3.37c-1.51,0.02-3.05,0.09-4.52,0.39
			c-5.73,1.18-8.87,6.06-7.43,11.37c0.6,2.23,2.16,3.65,4.11,4.81c-0.3,0.26-0.54,0.47-0.78,0.68c-1.5,1.36-2.26,3.04-1.85,5.05
			c0.41,1.99,1.86,3.16,3.73,3.68c1.22,0.34,2.51,0.45,3.78,0.52c1.75,0.09,3.52-0.04,5.27,0.09c1.74,0.13,2.67,1.03,2.72,2.33
			c0.05,1.33-0.77,2.36-2.46,2.61c-1.69,0.25-3.42,0.3-5.13,0.27c-2.77-0.06-3.31-0.52-4.26-3.12c-1.86,0-3.73,0-5.61,0
			C1036.82,505.2,1036.55,505.2,1036.18,505.2z M834.6,505.27c-0.2,3.47,1.36,6.13,4.56,7.08c2.19,0.65,4.53,0.95,6.82,1.07
			c3.36,0.18,6.72-0.07,9.86-1.51c2.41-1.11,4.18-2.82,4.6-5.57c0.62-4.09-1.73-7.38-6.14-8.29c-1.97-0.4-4.05-0.29-6.08-0.41
			c-1.04-0.06-2.08-0.03-3.11-0.19c-0.92-0.14-1.39-0.8-1.19-1.74c0.18-0.84,0.69-1.04,1.6-0.93c3.19,0.38,6.29,0.09,9.14-1.63
			c4.5-2.72,5.66-10.05-0.01-12.84c-0.17-0.08-0.3-0.26-0.38-0.32c2.2-0.31,4.38-0.63,6.68-0.96c-0.69-2.15-1.27-3.95-1.88-5.85
			c-2.68,1.55-5.32,2.8-8.27,3.11c-1.98,0.21-4,0.13-5.98,0.37c-3.58,0.44-6.64,1.88-8.34,5.27c-2.05,4.08-0.73,8.13,3.54,11.19
			c-0.33,0.3-0.68,0.57-0.98,0.88c-1.41,1.45-2.11,3.17-1.51,5.14c0.66,2.18,2.41,3.32,4.54,3.58c2.29,0.28,4.62,0.21,6.93,0.33
			c0.79,0.04,1.61,0.1,2.36,0.33c0.95,0.29,1.53,1.01,1.57,2.04c0.04,1.01-0.39,1.79-1.31,2.24c-0.39,0.19-0.81,0.4-1.23,0.43
			c-1.71,0.12-3.43,0.26-5.13,0.22c-2.71-0.07-3.29-0.56-4.12-3.04C838.97,505.27,836.78,505.27,834.6,505.27z M836.45,562.8
			c1.18,0,2.25,0,3.32,0c1.11,0,2.22,0,3.37,0c0.12-0.7,0.23-1.31,0.35-1.99c0.61,0.54,1.1,1.07,1.69,1.45
			c0.63,0.41,1.32,0.77,2.03,1c4.54,1.46,9.37-0.81,11.28-5.46c2.11-5.13,2.02-10.38,0.29-15.59c-2.27-6.85-10.45-7.3-14.04-3.18
			c-0.14,0.16-0.33,0.27-0.68,0.57c0-4.54,0-8.83,0-13.24c-2.61,0.27-5.09,0.53-7.61,0.8C836.45,539.06,836.45,550.85,836.45,562.8z
			 M940.48,502.74c2.23,0,4.33,0,6.5,0c0.02-0.28,0.06-0.51,0.06-0.74c0-6.28,0.01-12.55-0.01-18.83c0-0.83-0.11-1.68-0.28-2.5
			c-0.69-3.31-3.1-4.94-6.37-4.02c-1.55,0.44-2.91,1.51-4.39,2.32c-0.64-1.81-2.19-2.67-4.35-2.52c-2.08,0.14-3.4,1.54-4.75,3.12
			c-0.22-0.87-0.4-1.54-0.56-2.19c-1.89,0-3.67,0-5.52,0c0,8.48,0,16.89,0,25.32c2.24,0,4.4,0,6.61,0c0-5.93,0-11.77,0-17.6
			c0-1.47,1.2-2.73,2.55-2.7c0.99,0.02,1.28,0.58,1.29,2.52c0,0.16,0,0.32,0,0.48c0,5.36,0,10.71,0,16.07c0,0.42,0,0.84,0,1.26
			c1.87,0,3.58,0,5.4,0c0-0.53,0-1,0-1.48c0-5.32,0-10.63,0-15.95c0-0.32-0.03-0.64,0.02-0.96c0.13-0.95,1.54-2,2.58-1.95
			c1.25,0.06,1.1,1.05,1.21,1.85c0.06,0.43,0.03,0.88,0.03,1.32c0,5.24,0,10.47,0,15.71C940.48,501.75,940.48,502.22,940.48,502.74z
			 M975.84,502.73c0-0.5,0-0.93,0-1.36c0-5.2,0.01-10.4-0.01-15.6c-0.01-1.48-0.03-2.96-0.2-4.43c-0.51-4.44-4.58-6.36-8.38-3.97
			c-0.83,0.52-1.56,1.21-2.39,1.87c-0.75-2.13-2.32-2.95-4.48-2.8c-2.07,0.15-3.38,1.56-4.73,3.12c-0.22-0.89-0.38-1.54-0.53-2.16
			c-1.89,0-3.71,0-5.51,0c0,8.51,0,16.92,0,25.3c2.24,0,4.38,0,6.58,0c0-0.52,0-0.96,0-1.39c0-5.52,0-11.04,0-16.56
			c0-1.17,1.31-2.41,2.53-2.36c1.46,0.06,1.19,1.23,1.3,2.14c0.04,0.32,0.01,0.64,0.01,0.96c0,5.32,0,10.64,0,15.96
			c0,0.42,0,0.84,0,1.28c1.87,0,3.57,0,5.4,0c0-0.53,0-1,0-1.47c0-5.32,0-10.64,0-15.96c0-0.32-0.03-0.64,0.02-0.96
			c0.13-0.95,1.55-2,2.59-1.95c1.25,0.07,1.09,1.06,1.2,1.86c0.05,0.39,0.03,0.8,0.03,1.2c0,5.28,0,10.56,0,15.84
			c0,0.47,0,0.94,0,1.43C971.52,502.73,973.62,502.73,975.84,502.73z M749.75,502.71c2.63,0,5.2,0,7.86,0c0-1.88,0-3.68,0-5.47
			c0-1.79,0-3.58,0-5.51c1.77,0,3.4,0.08,5.03-0.01c6.8-0.42,11.48-3.84,11.77-10.82c0.19-4.74-1.91-8.35-6.33-10.08
			c-1.03-0.41-2.13-0.82-3.22-0.88c-4.43-0.23-8.86-0.32-13.29-0.45c-0.58-0.02-1.17,0-1.82,0
			C749.75,480.65,749.75,491.67,749.75,502.71z M915.65,503.48c0.47-1.48,0.94-2.92,1.37-4.37c0.06-0.22-0.01-0.64-0.15-0.72
			c-1.39-0.76-1.34-2.07-1.34-3.36c-0.01-3.24,0.02-6.48-0.01-9.72c-0.05-4.65-2.39-7.49-6.91-8.46c-3.6-0.77-7.16-0.42-10.69,0.43
			c-1.18,0.28-2.33,0.68-3.55,1.04c0.64,1.82,1.2,3.43,1.79,5.09c0.6-0.17,1.09-0.32,1.59-0.44c2.41-0.6,4.83-1.19,7.33-0.67
			c2.39,0.5,3.36,2.03,2.94,4.62c-1.12,0-2.28-0.09-3.42,0.02c-1.98,0.19-4,0.29-5.91,0.8c-3.87,1.02-6.14,3.72-6.32,7.09
			c-0.31,5.61,3.59,9.25,9.39,8.8c2.9-0.22,5.51-1.13,7.58-3.26C911.24,502.57,912.94,503.42,915.65,503.48z M818.7,503.64
			c6.22,0,10.58-3.2,11.84-9.07c0.49-2.26,0.54-4.69,0.36-7.01c-0.5-6.32-4.5-10.31-10.74-11.07c-6.49-0.78-11.86,2.73-13.31,9.02
			c-0.52,2.25-0.56,4.68-0.38,7C807.01,499.51,811.67,503.65,818.7,503.64z M774.57,532.34c-0.24-0.21-0.41-0.38-0.59-0.52
			c-3.26-2.53-7-3.32-11.04-3.13c-6.39,0.29-11.52,4.14-13.58,10.19c-1.08,3.17-1.17,6.43-0.97,9.71
			c0.54,8.78,5.97,14.45,14.42,15.02c4.71,0.32,8.79-1.15,12.23-4.49c-1.22-1.55-2.39-3.05-3.57-4.55c-1.01,0.66-1.9,1.28-2.82,1.82
			c-4.49,2.63-9.43,0.88-11.22-4c-1.11-3.04-1.08-6.19-0.75-9.35c0.21-2.01,0.76-3.92,1.94-5.59c1.4-1.99,3.35-2.95,5.74-2.89
			c1.95,0.04,3.76,0.66,5.39,1.78c0.32,0.22,0.64,0.43,0.99,0.66C772.05,535.39,773.29,533.89,774.57,532.34z M1009.29,477.37
			c0,8.54,0,16.95,0,25.36c2.55,0,5.01,0,7.59,0c0-0.5,0-0.93,0-1.36c0-4.84,0-9.67,0-14.51c0-2.26,1.2-3.91,3.35-4.58
			c1.86-0.59,3.08,0.15,3.35,2.07c0.09,0.67,0.09,1.36,0.09,2.03c0.01,5.04,0,10.07,0,15.11c0,0.42,0,0.84,0,1.22
			c2.66,0,5.12,0,7.62,0c0-6.68,0.08-13.27-0.03-19.86c-0.05-3.13-2.07-5.55-4.8-6.16c-2.82-0.63-5.49-0.2-7.87,1.51
			c-0.73,0.53-1.4,1.15-2.19,1.8c-0.19-0.92-0.36-1.77-0.54-2.63C1013.65,477.37,1011.5,477.37,1009.29,477.37z M829.64,562.76
			c0-8.53,0-16.94,0-25.36c-2.53,0-4.99,0-7.56,0c0,0.51,0,0.94,0,1.37c0,4.96-0.08,9.92,0.04,14.88c0.04,1.81-0.77,2.85-2.15,3.66
			c-2.67,1.57-4.69,0.45-4.69-2.62c-0.01-5.32,0-10.64,0-15.96c0-0.43,0-0.86,0-1.32c-2.63,0-5.12,0-7.62,0
			c0,6.61-0.1,13.12,0.04,19.63c0.07,3.34,2.02,5.72,4.9,6.32c3.58,0.75,6.83,0.03,9.49-2.64c0.18-0.18,0.38-0.33,0.63-0.55
			c0.14,0.94,0.26,1.75,0.38,2.58C825.32,562.76,827.43,562.76,829.64,562.76z M802.52,477.39c-1.79-0.85-4.44-1.11-6.42-0.66
			c-3.2,0.73-5,3.04-6.49,6.09c-0.44-1.79-0.78-3.25-1.18-4.69c-0.09-0.31-0.43-0.76-0.67-0.77c-2.87-0.05-5.73-0.03-8.65-0.03
			c0,1.74,0,3.36,0,5.12c1.12,0,2.17,0,3.19,0c0,5.16,0,10.18,0,15.31c-1.12,0-2.14,0-3.18,0c0,1.73,0,3.35,0,4.95
			c5.37,0,10.65,0,15.93,0c0-1.69,0-3.27,0-5.02c-1.68,0-3.29,0-4.97,0c0-2.08-0.03-4,0.01-5.91c0.06-3.29,1.72-5.74,4.24-7.66
			c0.51-0.39,1.19-0.56,2.02-0.93c0,1.75,0,3.23,0,4.69c1.7,0,3.24,0,4.78,0C801.61,484.3,802.07,480.83,802.52,477.39z
			 M865.45,502.71c5.42,0,10.71,0,16.01,0c0-1.68,0-3.26,0-5c-1.67,0-3.29,0-4.97,0c0-1.88,0.08-3.6-0.02-5.31
			c-0.19-3.15,1.28-5.55,3.4-7.61c0.71-0.69,1.75-1.06,2.91-1.74c0,1.92,0,3.38,0,4.84c1.66,0,3.2,0,4.76,0
			c0.47-3.56,0.93-7.03,1.4-10.57c-2.17-0.89-4.33-1.01-6.52-0.54c-3.17,0.69-4.92,3.03-6.4,6.04c-0.44-1.76-0.84-3.2-1.15-4.66
			c-0.13-0.65-0.41-0.84-1.04-0.83c-2.08,0.03-4.16,0.01-6.24,0.01c-0.7,0-1.4,0-2.09,0c0,1.79,0,3.37,0,5.11c1.11,0,2.16,0,3.21,0
			c0,5.16,0,10.18,0,15.31c-1.11,0-2.13,0-3.18,0c-0.04,0.26-0.08,0.41-0.08,0.56C865.44,499.74,865.45,501.17,865.45,502.71z
			 M799.06,556.89c-0.68,0.19-1.24,0.39-1.82,0.49c-4.34,0.73-5.15-0.58-5.11-3.87c0.1-8.27,0.03-16.55,0.03-24.82
			c0-0.47,0-0.93,0-1.46c-5.13,0-10.1,0-15.12,0c0,1.73,0,3.38,0,5.18c2.54,0,4.99,0,7.52,0c0,1.66,0,3.18,0,4.69
			c0,5.8-0.04,11.59,0.02,17.39c0.03,3.3,0.89,6.43,4.05,8.03c4.08,2.07,8.19,1.23,12.28-0.54
			C800.26,560.21,799.67,558.57,799.06,556.89z M996.02,497.56c0-6.81,0-13.47,0-20.16c-4.92,0-9.73,0-14.53,0c0,1.73,0,3.38,0,5.17
			c2.34,0,4.59,0,6.8,0c0,5.07,0,10.01,0,15.03c-2.41,0-4.71,0-7.03,0c0,1.79,0,3.47,0,5.13c7.12,0,14.14,0,21.2,0
			c0-1.73,0-3.38,0-5.18c-1.08,0-2.11,0-3.14,0C998.28,497.56,997.25,497.56,996.02,497.56z M991.44,472.56
			c2.61-0.01,4.46-1.78,4.48-4.28c0.02-2.54-1.89-4.38-4.54-4.35c-2.6,0.02-4.48,1.83-4.49,4.3
			C986.88,470.75,988.78,472.57,991.44,472.56z"/>
		<path d="M602.68,517.5c0-22.76,0.02-45.51-0.04-68.27c-0.01-2.08,1.2-3.11,3.12-3.11c38.83,0.05,77.66,0.03,116.5,0.03
			c2.17,0,3.06,0.87,3.06,3.03c0,45.55,0,91.1,0,136.65c0,2.2-0.92,3.11-3.13,3.11c-38.83,0-77.66,0-116.5,0
			c-2.15,0-3.01-0.88-3.01-3.06C602.68,563.09,602.68,540.3,602.68,517.5z M607.35,450.82c0,44.51,0,88.95,0,133.42
			c37.79,0,75.48,0,113.23,0c0-44.52,0-88.96,0-133.42C682.79,450.82,645.09,450.82,607.35,450.82z"/>
		<path d="M1036.18,505.2c0.37,0,0.64,0,0.91,0c1.88,0,3.76,0,5.61,0c0.95,2.6,1.49,3.06,4.26,3.12c1.71,0.03,3.44-0.02,5.13-0.27
			c1.69-0.25,2.51-1.28,2.46-2.61c-0.05-1.3-0.98-2.21-2.72-2.33c-1.75-0.13-3.52,0-5.27-0.09c-1.27-0.07-2.56-0.18-3.78-0.52
			c-1.87-0.52-3.32-1.69-3.73-3.68c-0.41-2,0.35-3.69,1.85-5.05c0.23-0.21,0.47-0.42,0.78-0.68c-1.96-1.16-3.51-2.58-4.11-4.81
			c-1.44-5.31,1.7-10.18,7.43-11.37c1.47-0.3,3.01-0.38,4.52-0.39c3.98-0.04,7.63-1.16,11.15-3.37c0.62,1.91,1.2,3.7,1.82,5.61
			c-2.14,0.96-4.4,0.95-6.87,1.09c0.33,0.24,0.46,0.36,0.62,0.44c5.74,2.81,4.52,10.22-0.04,12.9c-2.83,1.67-5.89,1.96-9.04,1.59
			c-0.97-0.12-1.49,0.12-1.64,1.01c-0.16,0.96,0.37,1.57,1.29,1.68c1.11,0.13,2.23,0.1,3.35,0.17c1.95,0.12,3.94,0.04,5.84,0.42
			c3.37,0.68,5.7,3.09,6.09,5.86c0.46,3.33-1,6.11-4.07,7.71c-3.27,1.7-6.83,1.94-10.39,1.79c-2.21-0.09-4.47-0.38-6.59-0.99
			C1037.61,511.45,1036.05,508.93,1036.18,505.2z M1052.72,485.69c0.01-2.8-1.23-4.2-3.75-4.21c-2.46-0.01-3.97,1.6-3.97,4.25
			c0,2.66,1.5,4.32,3.92,4.31C1051.38,490.03,1052.71,488.52,1052.72,485.69z"/>
		<path d="M834.6,505.27c2.18,0,4.37,0,6.55,0c0.83,2.48,1.41,2.98,4.12,3.05c1.71,0.04,3.43-0.1,5.13-0.22
			c0.42-0.03,0.84-0.24,1.23-0.43c0.92-0.45,1.35-1.23,1.31-2.24c-0.04-1.03-0.62-1.76-1.57-2.04c-0.75-0.23-1.57-0.29-2.36-0.33
			c-2.31-0.12-4.64-0.04-6.93-0.33c-2.13-0.26-3.88-1.4-4.54-3.58c-0.6-1.97,0.1-3.7,1.51-5.14c0.3-0.31,0.65-0.58,0.98-0.88
			c-4.27-3.06-5.59-7.11-3.54-11.19c1.7-3.39,4.76-4.83,8.34-5.27c1.98-0.24,3.99-0.16,5.98-0.37c2.95-0.31,5.59-1.55,8.27-3.11
			c0.61,1.9,1.19,3.7,1.88,5.85c-2.3,0.33-4.48,0.64-6.68,0.96c0.07,0.07,0.2,0.24,0.38,0.32c5.67,2.79,4.51,10.12,0.01,12.84
			c-2.85,1.72-5.95,2.01-9.14,1.63c-0.91-0.11-1.42,0.09-1.6,0.93c-0.2,0.95,0.27,1.6,1.19,1.74c1.02,0.15,2.07,0.13,3.11,0.19
			c2.03,0.12,4.11,0,6.08,0.41c4.42,0.9,6.77,4.2,6.14,8.29c-0.42,2.75-2.19,4.46-4.6,5.57c-3.13,1.45-6.5,1.69-9.86,1.51
			c-2.29-0.12-4.63-0.42-6.82-1.07C835.97,511.4,834.41,508.74,834.6,505.27z M851.12,485.74c0.03-2.82-1.2-4.23-3.7-4.26
			c-2.46-0.03-4,1.58-4.02,4.2c-0.02,2.66,1.48,4.35,3.87,4.36C849.76,490.05,851.09,488.56,851.12,485.74z"/>
		<path d="M836.45,562.8c0-11.95,0-23.74,0-35.64c2.52-0.26,5-0.52,7.61-0.8c0,4.41,0,8.7,0,13.24c0.36-0.29,0.55-0.41,0.68-0.57
			c3.59-4.12,11.76-3.67,14.04,3.18c1.73,5.2,1.82,10.46-0.29,15.59c-1.91,4.64-6.73,6.92-11.28,5.46c-0.71-0.23-1.4-0.59-2.03-1
			c-0.59-0.38-1.08-0.92-1.69-1.45c-0.12,0.69-0.23,1.29-0.35,1.99c-1.14,0-2.25,0-3.37,0C838.7,562.8,837.63,562.8,836.45,562.8z
			 M844.08,550.32c0,1.56-0.04,3.12,0.02,4.68c0.02,0.48,0.2,1.01,0.47,1.4c0.97,1.38,2.37,1.9,3.99,1.56
			c1.62-0.34,2.53-1.54,2.93-3.03c0.88-3.26,0.86-6.57,0.06-9.84c-0.55-2.25-1.99-3.21-3.99-2.93c-1.82,0.26-3.49,2.21-3.49,4.09
			C844.08,547.6,844.08,548.96,844.08,550.32z"/>
		<path d="M940.48,502.74c0-0.52,0-0.99,0-1.46c0-5.24,0-10.47,0-15.71c0-0.44,0.02-0.88-0.03-1.32c-0.1-0.8,0.04-1.79-1.21-1.85
			c-1.04-0.05-2.45,1-2.58,1.95c-0.04,0.31-0.02,0.64-0.02,0.96c0,5.32,0,10.63,0,15.95c0,0.47,0,0.94,0,1.48c-1.83,0-3.53,0-5.4,0
			c0-0.42,0-0.84,0-1.26c0-5.36,0-10.71,0-16.07c0-0.16,0-0.32,0-0.48c-0.01-1.95-0.29-2.5-1.29-2.52c-1.35-0.03-2.55,1.24-2.55,2.7
			c0,5.84,0,11.67,0,17.6c-2.21,0-4.37,0-6.61,0c0-8.43,0-16.84,0-25.32c1.85,0,3.63,0,5.52,0c0.17,0.65,0.34,1.31,0.56,2.19
			c1.35-1.58,2.67-2.98,4.75-3.12c2.16-0.15,3.71,0.71,4.35,2.52c1.48-0.81,2.85-1.88,4.39-2.32c3.27-0.92,5.68,0.71,6.37,4.02
			c0.17,0.82,0.28,1.66,0.28,2.5c0.02,6.28,0.01,12.55,0.01,18.83c0,0.23-0.04,0.46-0.06,0.74
			C944.81,502.74,942.71,502.74,940.48,502.74z"/>
		<path d="M975.84,502.73c-2.22,0-4.32,0-6.56,0c0-0.49,0-0.96,0-1.43c0-5.28,0-10.56,0-15.84c0-0.4,0.02-0.8-0.03-1.2
			c-0.11-0.8,0.05-1.79-1.2-1.86c-1.04-0.06-2.45,1-2.59,1.95c-0.04,0.31-0.02,0.64-0.02,0.96c0,5.32,0,10.64,0,15.96
			c0,0.47,0,0.95,0,1.47c-1.83,0-3.53,0-5.4,0c0-0.43,0-0.85,0-1.28c0-5.32,0-10.64,0-15.96c0-0.32,0.03-0.64-0.01-0.96
			c-0.11-0.9,0.15-2.08-1.3-2.14c-1.21-0.05-2.53,1.18-2.53,2.36c-0.01,5.52,0,11.04,0,16.56c0,0.44,0,0.87,0,1.39
			c-2.2,0-4.34,0-6.58,0c0-8.38,0-16.79,0-25.3c1.8,0,3.62,0,5.51,0c0.15,0.63,0.31,1.27,0.53,2.16c1.35-1.57,2.66-2.97,4.73-3.12
			c2.16-0.16,3.74,0.66,4.48,2.8c0.83-0.66,1.56-1.35,2.39-1.87c3.8-2.39,7.87-0.47,8.38,3.97c0.17,1.46,0.19,2.95,0.2,4.43
			c0.02,5.2,0.01,10.4,0.01,15.6C975.84,501.8,975.84,502.23,975.84,502.73z"/>
		<path d="M749.75,502.71c0-11.05,0-22.07,0-33.23c0.65,0,1.24-0.02,1.82,0c4.43,0.14,8.86,0.23,13.29,0.45
			c1.09,0.06,2.19,0.47,3.22,0.88c4.41,1.73,6.52,5.35,6.33,10.08c-0.29,6.98-4.97,10.4-11.77,10.82c-1.62,0.1-3.26,0.01-5.03,0.01
			c0,1.94,0,3.72,0,5.51c0,1.79,0,3.59,0,5.47C754.94,502.71,752.38,502.71,749.75,502.71z M757.67,486.08
			c1.63-0.09,3.18-0.07,4.7-0.3c2.03-0.31,3.31-1.62,3.64-3.62c0.6-3.61-0.2-6.3-4.24-6.86c-1.32-0.18-2.69-0.03-4.1-0.03
			C757.67,478.82,757.67,482.31,757.67,486.08z"/>
		<path d="M915.65,503.48c-2.71-0.06-4.41-0.9-6.32-3.11c-2.06,2.13-4.68,3.04-7.58,3.26c-5.81,0.45-9.7-3.2-9.39-8.8
			c0.18-3.37,2.45-6.07,6.32-7.09c1.91-0.5,3.93-0.61,5.91-0.8c1.14-0.11,2.29-0.02,3.42-0.02c0.42-2.59-0.55-4.11-2.94-4.62
			c-2.5-0.53-4.92,0.07-7.33,0.67c-0.5,0.12-0.99,0.27-1.59,0.44c-0.58-1.66-1.15-3.27-1.79-5.09c1.23-0.36,2.38-0.76,3.55-1.04
			c3.53-0.85,7.09-1.2,10.69-0.43c4.52,0.97,6.86,3.8,6.91,8.46c0.03,3.24,0,6.48,0.01,9.72c0.01,1.28-0.05,2.6,1.34,3.36
			c0.15,0.08,0.22,0.51,0.15,0.72C916.59,500.56,916.12,502,915.65,503.48z M908.15,491.33c-2.06-0.11-4-0.17-5.84,0.61
			c-1.6,0.68-2.3,2.02-2.03,3.77c0.21,1.39,1.28,2.36,2.97,2.42c1.96,0.07,3.55-0.76,4.67-2.39c0.13-0.19,0.22-0.44,0.22-0.66
			C908.17,493.86,908.15,492.64,908.15,491.33z"/>
		<path d="M818.7,503.64c-7.03,0.01-11.69-4.13-12.24-11.12c-0.18-2.32-0.13-4.75,0.38-7c1.45-6.3,6.83-9.81,13.31-9.02
			c6.24,0.75,10.24,4.75,10.74,11.07c0.18,2.32,0.13,4.74-0.36,7.01C829.28,500.44,824.92,503.64,818.7,503.64z M823.32,490.53
			c-0.14-1.61-0.22-2.72-0.34-3.83c-0.05-0.47-0.18-0.94-0.32-1.4c-0.64-2.09-1.92-3.14-3.84-3.17c-2.06-0.04-3.41,0.88-4.03,3.05
			c-0.94,3.29-0.94,6.64,0.05,9.92c0.6,2,1.96,2.92,3.9,2.91c1.91-0.01,3.28-0.97,3.82-3C822.98,493.4,823.12,491.72,823.32,490.53z
			"/>
		<path d="M774.57,532.34c-1.28,1.55-2.52,3.05-3.84,4.65c-0.35-0.24-0.67-0.45-0.99-0.66c-1.62-1.12-3.43-1.73-5.39-1.78
			c-2.39-0.05-4.34,0.91-5.74,2.89c-1.18,1.68-1.73,3.58-1.94,5.59c-0.33,3.16-0.36,6.31,0.75,9.35c1.79,4.88,6.73,6.63,11.22,4
			c0.93-0.54,1.81-1.16,2.82-1.82c1.18,1.5,2.35,3,3.57,4.55c-3.44,3.35-7.52,4.81-12.23,4.49c-8.44-0.57-13.88-6.24-14.42-15.02
			c-0.2-3.28-0.11-6.55,0.97-9.71c2.06-6.05,7.19-9.9,13.58-10.19c4.04-0.19,7.78,0.61,11.04,3.13
			C774.16,531.97,774.32,532.13,774.57,532.34z"/>
		<path d="M1009.29,477.37c2.21,0,4.36,0,6.58,0c0.18,0.87,0.35,1.71,0.54,2.63c0.79-0.65,1.45-1.27,2.19-1.8
			c2.38-1.71,5.05-2.14,7.87-1.51c2.73,0.61,4.74,3.03,4.8,6.16c0.11,6.59,0.03,13.18,0.03,19.86c-2.5,0-4.96,0-7.62,0
			c0-0.39,0-0.81,0-1.22c0-5.04,0-10.07,0-15.11c0-0.68,0-1.36-0.09-2.03c-0.27-1.92-1.49-2.66-3.35-2.07
			c-2.15,0.68-3.35,2.32-3.35,4.58c0,4.84,0,9.67,0,14.51c0,0.43,0,0.86,0,1.36c-2.57,0-5.03,0-7.59,0
			C1009.29,494.32,1009.29,485.91,1009.29,477.37z"/>
		<path d="M829.64,562.76c-2.21,0-4.32,0-6.53,0c-0.12-0.83-0.24-1.64-0.38-2.58c-0.25,0.22-0.45,0.37-0.63,0.55
			c-2.67,2.67-5.92,3.39-9.49,2.64c-2.88-0.6-4.83-2.98-4.9-6.32c-0.14-6.51-0.04-13.03-0.04-19.63c2.5,0,4.99,0,7.62,0
			c0,0.46,0,0.89,0,1.32c0,5.32-0.01,10.64,0,15.96c0.01,3.06,2.02,4.19,4.69,2.62c1.38-0.81,2.19-1.85,2.15-3.66
			c-0.12-4.96-0.04-9.92-0.04-14.88c0-0.43,0-0.86,0-1.37c2.57,0,5.03,0,7.56,0C829.64,545.82,829.64,554.24,829.64,562.76z"/>
		<path d="M802.52,477.39c-0.45,3.44-0.91,6.92-1.38,10.48c-1.55,0-3.09,0-4.78,0c0-1.45,0-2.94,0-4.69
			c-0.83,0.37-1.51,0.54-2.02,0.93c-2.52,1.92-4.18,4.37-4.24,7.66c-0.04,1.92-0.01,3.83-0.01,5.91c1.68,0,3.29,0,4.97,0
			c0,1.74,0,3.33,0,5.02c-5.27,0-10.56,0-15.93,0c0-1.6,0-3.21,0-4.95c1.05,0,2.07,0,3.18,0c0-5.13,0-10.15,0-15.31
			c-1.02,0-2.08,0-3.19,0c0-1.76,0-3.37,0-5.12c2.92,0,5.79-0.02,8.65,0.03c0.23,0,0.58,0.46,0.67,0.77
			c0.41,1.44,0.74,2.91,1.18,4.69c1.49-3.05,3.29-5.36,6.49-6.09C798.08,476.28,800.73,476.53,802.52,477.39z"/>
		<path d="M865.45,502.71c0-1.53,0-2.97,0-4.41c0-0.15,0.04-0.3,0.08-0.56c1.05,0,2.07,0,3.18,0c0-5.13,0-10.15,0-15.31
			c-1.05,0-2.1,0-3.21,0c0-1.73,0-3.32,0-5.11c0.69,0,1.39,0,2.09,0c2.08,0,4.16,0.02,6.24-0.01c0.63-0.01,0.91,0.18,1.04,0.83
			c0.3,1.46,0.71,2.91,1.15,4.66c1.48-3,3.22-5.35,6.4-6.04c2.18-0.48,4.35-0.35,6.52,0.54c-0.47,3.54-0.93,7.01-1.4,10.57
			c-1.55,0-3.09,0-4.76,0c0-1.46,0-2.92,0-4.84c-1.17,0.68-2.2,1.05-2.91,1.74c-2.12,2.06-3.59,4.46-3.4,7.61
			c0.1,1.71,0.02,3.43,0.02,5.31c1.69,0,3.3,0,4.97,0c0,1.74,0,3.33,0,5C876.16,502.71,870.87,502.71,865.45,502.71z"/>
		<path d="M799.06,556.89c0.61,1.68,1.2,3.32,1.85,5.1c-4.09,1.76-8.2,2.61-12.28,0.54c-3.16-1.6-4.01-4.72-4.05-8.03
			c-0.06-5.8-0.02-11.59-0.02-17.39c0-1.52,0-3.03,0-4.69c-2.53,0-4.98,0-7.52,0c0-1.8,0-3.45,0-5.18c5.01,0,9.99,0,15.12,0
			c0,0.52,0,0.99,0,1.46c0,8.27,0.07,16.55-0.03,24.82c-0.04,3.29,0.78,4.6,5.11,3.87C797.82,557.28,798.38,557.07,799.06,556.89z"
			/>
		<path d="M996.02,497.56c1.22,0,2.26,0,3.3,0c1.03,0,2.06,0,3.14,0c0,1.79,0,3.45,0,5.18c-7.06,0-14.09,0-21.2,0
			c0-1.66,0-3.35,0-5.13c2.32,0,4.63,0,7.03,0c0-5.03,0-9.96,0-15.03c-2.21,0-4.46,0-6.8,0c0-1.79,0-3.44,0-5.17
			c4.81,0,9.62,0,14.53,0C996.02,484.09,996.02,490.75,996.02,497.56z"/>
		<path d="M991.44,472.56c-2.66,0.01-4.56-1.81-4.55-4.34c0.01-2.47,1.89-4.28,4.49-4.3c2.65-0.02,4.56,1.81,4.54,4.35
			C995.9,470.78,994.05,472.55,991.44,472.56z"/>
		<path class="st0" d="M607.35,450.82c37.74,0,75.44,0,113.23,0c0,44.46,0,88.9,0,133.42c-37.75,0-75.44,0-113.23,0
			C607.35,539.77,607.35,495.33,607.35,450.82z M647.88,523.44c0,6.16,0,12.17,0,18.18c6.23,0,12.37,0,18.66,0c0-1.56,0-3.06,0-4.61
			c1.59,0,3.03,0.02,4.46-0.01c1.68-0.03,3.41,0.17,5.02-0.2c7.78-1.78,14.76-5.19,20.5-10.83c5.66-5.57,8.78-12.4,9.46-20.3
			c0.74-8.56-0.85-16.55-6-23.61c-4.28-5.86-10.04-9.77-16.72-12.38c-4.49-1.76-9.1-2.8-14.01-2.72
			c-9.12,0.15-18.24,0.04-27.36,0.04c-0.47,0-0.94,0-1.55,0c0-1.59,0-3.05,0-4.5c-0.3-0.06-0.45-0.11-0.6-0.11
			c-5.68-0.01-11.36,0.01-17.04-0.02c-0.87,0-0.94,0.44-0.94,1.12c0.02,5.44,0.01,10.88,0.01,16.32c0,0.3,0.07,0.6,0.11,0.9
			c6.19,0,12.29,0,18.51,0c0-1.46,0-2.84,0-4.26c0.39-0.02,0.66-0.06,0.93-0.06c10.44,0,20.88,0,31.32,0c0.44,0,0.89,0.02,1.3,0.16
			c2.65,0.87,5.38,1.58,7.91,2.71c7.49,3.35,12.71,8.75,14.39,17.03c0.99,4.86,0.83,9.72-0.79,14.42
			c-2.1,6.08-6.36,10.33-11.91,13.38c-4.41,2.42-9,4.11-14.16,3.64c-0.94-0.09-1.89-0.01-2.93-0.01c0-1.53,0-2.87,0-4.28
			C660.23,523.44,654.09,523.44,647.88,523.44z M666.44,492.46c-6.23,0-12.39,0-18.66,0c0,1.63,0,3.18,0,4.85c-0.53,0-0.96,0-1.38,0
			c-4.64,0-9.28,0-13.92,0c-5.81,0.01-10.36,4.54-10.36,10.33c0,16.8,0,33.59,0,50.39c0,6.44,4.5,10.96,10.92,10.96
			c4.48,0,8.96,0,13.44,0c0.42,0,0.84,0.03,1.33,0.06c0,1.29,0,2.44,0,3.65c6.25,0,12.43,0,18.6,0c0-6.14,0-12.2,0-18.29
			c-6.22,0-12.36,0-18.62,0c0,1.72,0,3.38,0,5.12c-0.5,0.02-0.89,0.06-1.28,0.06c-4.44,0-8.88,0-13.32,0c-1.57,0-1.87-0.3-1.87-1.9
			c0-16.44,0-32.87,0-49.31c0-1.5,0.19-1.68,1.63-1.68c4.52,0,9.04,0,13.56,0c0.39,0,0.78,0.04,1.3,0.06c0,1.34,0,2.6,0,3.86
			c6.28,0,12.42,0,18.62,0C666.44,504.56,666.44,498.54,666.44,492.46z"/>
		<path class="st0" d="M1052.72,485.69c-0.01,2.83-1.33,4.34-3.8,4.35c-2.41,0.01-3.92-1.65-3.92-4.31c0-2.65,1.51-4.26,3.97-4.25
			C1051.49,481.49,1052.73,482.89,1052.72,485.69z"/>
		<path class="st0" d="M851.12,485.74c-0.03,2.82-1.36,4.31-3.85,4.3c-2.39-0.01-3.89-1.7-3.87-4.36c0.02-2.62,1.56-4.23,4.02-4.2
			C849.92,481.51,851.15,482.92,851.12,485.74z"/>
		<path class="st0" d="M844.08,550.32c0-1.36,0-2.72,0-4.08c0-1.88,1.67-3.84,3.49-4.09c2-0.28,3.43,0.69,3.99,2.93
			c0.8,3.27,0.82,6.58-0.06,9.84c-0.4,1.49-1.31,2.7-2.93,3.03c-1.63,0.34-3.02-0.18-3.99-1.56c-0.28-0.39-0.46-0.93-0.47-1.4
			C844.04,553.44,844.08,551.88,844.08,550.32z"/>
		<path class="st0" d="M757.67,486.08c0-3.77,0-7.26,0-10.81c1.41,0,2.78-0.15,4.1,0.03c4.04,0.56,4.84,3.25,4.24,6.86
			c-0.33,2-1.62,3.31-3.64,3.62C760.85,486.01,759.3,485.98,757.67,486.08z"/>
		<path class="st0" d="M908.15,491.33c0,1.3,0.01,2.53-0.01,3.76c0,0.22-0.09,0.48-0.22,0.66c-1.13,1.63-2.71,2.47-4.67,2.39
			c-1.69-0.06-2.76-1.03-2.97-2.42c-0.27-1.75,0.43-3.09,2.03-3.77C904.16,491.17,906.1,491.22,908.15,491.33z"/>
		<path class="st0" d="M823.32,490.53c-0.2,1.19-0.34,2.87-0.77,4.47c-0.54,2.03-1.91,2.99-3.82,3c-1.94,0.01-3.3-0.91-3.9-2.91
			c-0.99-3.29-0.99-6.63-0.05-9.92c0.62-2.17,1.97-3.09,4.03-3.05c1.92,0.04,3.2,1.09,3.84,3.17c0.14,0.46,0.27,0.93,0.32,1.4
			C823.1,487.8,823.18,488.92,823.32,490.53z"/>
		<path d="M647.88,523.44c6.2,0,12.34,0,18.59,0c0,1.4,0,2.75,0,4.28c1.04,0,1.99-0.07,2.93,0.01c5.16,0.47,9.75-1.21,14.16-3.64
			c5.55-3.05,9.81-7.3,11.91-13.38c1.62-4.7,1.78-9.56,0.79-14.42c-1.69-8.29-6.9-13.68-14.39-17.03c-2.54-1.13-5.26-1.84-7.91-2.71
			c-0.41-0.13-0.87-0.15-1.3-0.16c-10.44-0.01-20.88-0.01-31.32,0c-0.27,0-0.54,0.03-0.93,0.06c0,1.43,0,2.81,0,4.26
			c-6.22,0-12.32,0-18.51,0c-0.04-0.29-0.1-0.6-0.11-0.9c-0.01-5.44,0-10.88-0.01-16.32c0-0.69,0.07-1.13,0.94-1.12
			c5.68,0.03,11.36,0.02,17.04,0.02c0.15,0,0.31,0.05,0.6,0.11c0,1.45,0,2.9,0,4.5c0.61,0,1.08,0,1.55,0
			c9.12,0,18.24,0.11,27.36-0.04c4.91-0.08,9.51,0.96,14.01,2.72c6.68,2.61,12.45,6.52,16.72,12.38c5.15,7.06,6.74,15.06,6,23.61
			c-0.68,7.91-3.8,14.73-9.46,20.3c-5.74,5.65-12.72,9.05-20.5,10.83c-1.6,0.37-3.34,0.17-5.02,0.2c-1.44,0.03-2.88,0.01-4.46,0.01
			c0,1.56,0,3.05,0,4.61c-6.29,0-12.43,0-18.66,0C647.88,535.61,647.88,529.6,647.88,523.44z"/>
		<path d="M666.44,492.46c0,6.08,0,12.09,0,18.18c-6.2,0-12.34,0-18.62,0c0-1.27,0-2.52,0-3.86c-0.52-0.03-0.91-0.06-1.3-0.06
			c-4.52,0-9.04,0-13.56,0c-1.45,0-1.63,0.18-1.63,1.68c0,16.44,0,32.87,0,49.31c0,1.61,0.3,1.9,1.87,1.9c4.44,0,8.88,0,13.32,0
			c0.39,0,0.78-0.04,1.28-0.06c0-1.75,0-3.41,0-5.12c6.26,0,12.4,0,18.62,0c0,6.09,0,12.15,0,18.29c-6.18,0-12.35,0-18.6,0
			c0-1.21,0-2.36,0-3.65c-0.49-0.02-0.91-0.06-1.33-0.06c-4.48,0-8.96,0-13.44,0c-6.42-0.01-10.92-4.52-10.92-10.96
			c0-16.8,0-33.59,0-50.39c0-5.8,4.54-10.33,10.36-10.33c4.64,0,9.28,0,13.92,0c0.43,0,0.85,0,1.38,0c0-1.68,0-3.22,0-4.85
			C654.05,492.46,660.22,492.46,666.44,492.46z"/>
	</g>
</g>
</svg>
