<svg viewBox="0 0 340 380" version="1.1" xmlns="http://www.w3.org/2000/svg" title="animated image from https://www.brandevolutionco.com/" desc="Created using Brand Evolution svg converter at https://www.brandevolutionco.com/animate/" class="animate-svg"><defs><style>.animate-svg path{-webkit-animation:draw ease-in-out forwards;animation:draw ease-in-out forwards;stroke:#000}.animate-svg{-webkit-animation:fillopacity 3 ease-in-out forwards;animation:fillopacity 3s ease-in-out forwards}@-webkit-keyframes draw{100%{stroke-dashoffset:0}}@keyframes draw{100%{stroke-dashoffset:0}}@-webkit-keyframes fillopacity{0%,70%{fill-opacity:0;stroke-width:0.5%}100%{fill-opacity:1;stroke-width:0}}@keyframes fillopacity{0%,70%{fill-opacity:0;stroke-width:0.5%}100%{fill-opacity:1;stroke-width:0}}</style></defs><path fill="rgb(254,254,253)" stroke="rgb(254,254,253)" stroke-width="null" opacity="0.9921568627450981" d="M 23.5 16 L 316.5 16 L 320 18.5 L 320 362.5 L 317.5 365 L 23.5 365 L 21 364 L 20 361.5 L 20 19.5 L 23.5 16 Z M 32 28 L 32 353 L 308 353 L 308 28 L 32 28 Z " style="stroke-dasharray: 2493.17; stroke-dashoffset: 2493.17; animation-delay: 0s; animation-duration: 1.51561s;"></path><path fill="rgb(254,254,253)" stroke="rgb(254,254,253)" stroke-width="null" opacity="0.9921568627450981" d="M 67 55 L 112.5 55 L 113 55.5 L 113 65.5 L 113.5 66 L 192.5 66 Q 233.9 73.1 256 99.5 Q 275.3 120.2 274 161.5 Q 270.1 193.8 252 211 L 250 211 Q 251.1 213.7 248.5 213 Q 235 226.5 215.5 234 Q 200.8 241.5 177 239 L 177 249.5 L 176.5 250 L 130 250 L 130 204 L 177 204 L 177 215 L 196.5 215 Q 219.2 208.4 234 195 L 234 193 Q 236.7 194.1 236 191.5 Q 251 177.5 250 147.5 Q 247.1 118.9 228.5 106 Q 214.9 95.6 195.5 91 L 113 91 L 113 101.5 L 112.5 102 L 67 102 L 67 55 Z " style="stroke-dasharray: 963.71; stroke-dashoffset: 963.71; animation-delay: 0.1s; animation-duration: 0.632775s;"></path><path fill="rgb(254,254,253)" stroke="rgb(254,254,253)" stroke-width="null" opacity="0.9921568627450981" d="M 130 128 L 177 128 L 177 175 L 130.5 175 L 130 174.5 L 130 165.5 L 129.5 165 L 91 165 L 91 291.5 L 92.5 293 L 130 293 L 130 280.5 L 130.5 280 L 177 280 L 177 326 L 130 326 L 130 317.5 L 129.5 317 L 89.5 317 Q 78.4 315.1 73 307.5 L 67 293.5 L 67 163.5 L 73 149 Q 78.1 143.3 87.5 141 L 130 141 L 130 128 Z " style="stroke-dasharray: 810.251; stroke-dashoffset: 810.251; animation-delay: 0.2s; animation-duration: 0.55125s;"></path><path fill="rgb(254,254,253)" stroke="rgb(254,254,253)" stroke-width="null" opacity="0.9921568627450981" d="M 186 279 L 197 279 L 197 310.5 L 199.5 314 L 210.5 314 L 212 315.5 L 212 326 L 196.5 326 L 188 319.5 L 186 313.5 L 186 279 Z " style="stroke-dasharray: 137.448; stroke-dashoffset: 137.448; animation-delay: 0.3s; animation-duration: 0.469253s;"></path><path fill="rgb(254,254,253)" stroke="rgb(254,254,253)" stroke-width="null" opacity="0.9921568627450981" d="M 219 279 L 231 279 L 231 310.5 Q 228.2 312.3 232.5 314 Q 241.5 316.5 244 312.5 L 244 279 L 256 279 L 256 314.5 L 254 320 Q 251.3 318.9 252 321.5 L 245.5 326 L 228.5 326 L 222 322 L 219 315.5 L 219 279 Z " style="stroke-dasharray: 228.016; stroke-dashoffset: 228.016; animation-delay: 0.4s; animation-duration: 0.369867s;"></path><path fill="rgb(254,254,253)" stroke="rgb(254,254,253)" stroke-width="null" opacity="0.9921568627450981" d="M 263 279 L 289.5 279 L 296 283.5 Q 299.7 287.3 300 294.5 L 297 302.5 L 300 312.5 L 296 322 L 294 322 Q 295.1 324.7 292.5 324 L 289.5 326 L 263 326 L 263 279 Z M 276 290 L 274 292 L 274 296 L 287 296 L 288 293 Q 286 287 276 290 Z M 274 308 L 274 314 L 287 314 L 288 311 L 286 308 L 274 308 Z " style="stroke-dasharray: 233.112; stroke-dashoffset: 233.112; animation-delay: 0.5s; animation-duration: 0.367824s;"></path><path fill="rgb(0,0,0)" stroke="rgb(0,0,0)" stroke-width="null" opacity="0" d="M 0 0 L 340 0 L 340 380 L 0 380 L 0 0 Z M 24 16 L 20 20 L 20 362 L 21 364 L 24 365 L 318 365 L 320 363 L 320 19 L 317 16 L 24 16 Z " style="stroke-dasharray: 2731.13; stroke-dashoffset: 2731.13; animation-delay: 0.6s; animation-duration: 1.65636s;"></path><path fill="rgb(0,0,0)" stroke="rgb(0,0,0)" stroke-width="null" opacity="0" d="M 32 28 L 308 28 L 308 353 L 32 353 L 32 28 Z M 67 55 L 67 102 L 113 102 L 113 102 L 113 91 L 196 91 Q 215 96 229 106 Q 247 119 250 148 Q 251 178 236 192 Q 237 194 234 193 L 234 195 Q 219 208 197 215 L 177 215 L 177 204 L 130 204 L 130 250 L 177 250 L 177 250 L 177 239 Q 201 242 216 234 Q 235 227 249 213 Q 251 214 250 211 L 252 211 Q 270 194 274 162 Q 275 120 256 100 Q 234 73 193 66 L 114 66 L 113 66 L 113 56 L 113 55 L 67 55 Z M 130 128 L 130 141 L 88 141 Q 78 143 73 149 L 67 164 L 67 294 L 73 308 Q 78 315 90 317 L 130 317 L 130 318 L 130 326 L 177 326 L 177 280 L 131 280 L 130 281 L 130 293 L 93 293 L 91 292 L 91 165 L 130 165 L 130 166 L 130 175 L 131 175 L 177 175 L 177 128 L 130 128 Z M 186 279 L 186 314 L 188 320 L 197 326 L 212 326 L 212 316 L 211 314 L 200 314 L 197 311 L 197 279 L 186 279 Z M 219 279 L 219 316 L 222 322 L 229 326 L 246 326 L 252 322 Q 251 319 254 320 L 256 315 L 256 279 L 244 279 L 244 313 Q 241 317 233 314 Q 228 312 231 311 L 231 279 L 219 279 Z M 263 279 L 263 326 L 290 326 L 293 324 Q 295 325 294 322 L 296 322 L 300 313 L 297 303 L 300 295 Q 300 287 296 284 L 290 279 L 263 279 Z " style="stroke-dasharray: 3503.81; stroke-dashoffset: 3503.81; animation-delay: 0.7s; animation-duration: 2.11518s;"></path><path fill="rgb(0,0,0)" stroke="rgb(0,0,0)" stroke-width="null" opacity="0" d="M 275.5 290 Q 285.5 287.5 288 292.5 L 286.5 296 L 274 296 L 274 291.5 L 275.5 290 Z " style="stroke-dasharray: 36.7232; stroke-dashoffset: 36.7232; animation-delay: 0.8s; animation-duration: 1.47s;"></path><path fill="rgb(0,0,0)" stroke="rgb(0,0,0)" stroke-width="null" opacity="0" d="M 274 308 L 285.5 308 L 288 310.5 L 286.5 314 L 274 314 L 274 308 Z " style="stroke-dasharray: 37.3434; stroke-dashoffset: 37.3434; animation-delay: 0.9s; animation-duration: 1.44632s;"></path></svg>