<?xml version="1.0" encoding="utf-8"?>
<svg xmlns="http://www.w3.org/2000/svg" style="margin: auto; display: block; shape-rendering: auto; background: none;" width="285" height="250" preserveAspectRatio="xMidYMid">
<style type="text/css">
  text {
    text-anchor: middle; font-size: 49px; opacity: 0;
  }
</style>
<g style="transform-origin: 142.5px 125px; transform: scale(0.859649);">
<g transform="translate(142.5,125)">
  <g transform="translate(0,0)"><g class="path" style="transform: scale(1); transform-origin: -137.99px 2.72774px; animation: 1.5873s linear -0.952381s infinite normal forwards running beat-92464373-1d57-48e7-a72c-03ae88e02682;"><path d="M27.25-23.14L27.25-23.14L27.25-23.14Q26.05-21.89 21.60-21.95L21.60-21.95L21.60-21.95Q20.69-29.13 16.42-29.13L16.42-29.13L16.42-29.13Q13.05-29.13 10.72-25.25L10.72-25.25L10.72-25.25Q8.38-21.38 8.38-15.05L8.38-15.05L8.38-15.05Q8.38-8.55 10.43-5.04L10.43-5.04L10.43-5.04Q12.48-1.54 16.59-1.54L16.59-1.54L16.59-1.54Q20.92-1.54 25.08-5.07L25.08-5.07L25.08-5.07Q25.94-4.56 26.39-3.31L26.39-3.31L26.39-3.31Q22.23 1.14 15.96 1.14L15.96 1.14L15.96 1.14Q9.97 1.14 6.16-2.99L6.16-2.99L6.16-2.99Q2.34-7.13 2.34-15.16L2.34-15.16L2.34-15.16Q2.34-22.86 6.58-27.22L6.58-27.22L6.58-27.22Q10.83-31.58 16.30-31.58L16.30-31.58L16.30-31.58Q20.63-31.58 23.94-29.41L23.94-29.41L23.94-29.41Q27.25-27.25 27.25-23.14" fill="#111111" stroke="none" stroke-width="none" transform="translate(-152.7849941253662,17.947741400978778)" style="fill: rgb(17, 17, 17);"></path></g><g class="path" style="transform: scale(1); transform-origin: -105.843px -5.19226px; animation: 1.5873s linear -0.857143s infinite normal forwards running beat-92464373-1d57-48e7-a72c-03ae88e02682;"><path d="M35.00-9.92L35.00-36.99L35.00-36.99Q35.00-40.76 34.83-42.58L34.83-42.58L30.32-43.15L30.32-43.15Q30.10-44.00 30.32-45.32L30.32-45.32L30.32-45.32Q34.14-45.60 40.07-46.51L40.07-46.51L40.07-46.51Q40.58-45.94 40.64-45.37L40.64-45.37L40.64-45.37Q40.36-43.89 40.36-36.14L40.36-36.14L40.36-25.37L40.36-25.37Q44.57-31.18 50.50-31.18L50.50-31.18L50.50-31.18Q54.04-31.18 56.54-29.41L56.54-29.41L56.54-29.41Q59.05-27.64 59.05-23.37L59.05-23.37L59.05-2.91L63.67-2.05L63.67-2.05Q63.90-1.14 63.67 0.23L63.67 0.23L63.67 0.23Q60.08 0.06 56.37 0.06L56.37 0.06L56.37 0.06Q53.75 0.06 48.96 0.17L48.96 0.17L48.96 0.17Q48.62-0.91 48.96-2.05L48.96-2.05L53.47-2.68L53.47-2.68Q53.69-5.81 53.69-9.92L53.69-9.92L53.69-20.52L53.69-20.52Q53.69-24.51 52.70-26.28L52.70-26.28L52.70-26.28Q51.70-28.04 49.08-28.04L49.08-28.04L49.08-28.04Q46.91-28.04 44.55-26.45L44.55-26.45L44.55-26.45Q42.18-24.85 40.36-21.83L40.36-21.83L40.36-2.91L44.97-2.05L44.97-2.05Q45.20-1.14 44.97 0.23L44.97 0.23L44.97 0.23Q41.38 0.06 37.68 0.06L37.68 0.06L37.68 0.06Q35.05 0.06 30.27 0.17L30.27 0.17L30.27 0.17Q29.93-0.91 30.27-2.05L30.27-2.05L34.77-2.68L34.77-2.68Q35.00-5.81 35.00-9.92L35.00-9.92" fill="#111111" stroke="none" stroke-width="none" transform="translate(-152.7849941253662,17.947741400978778)" style="fill: rgb(17, 17, 17);"></path></g><g class="path" style="transform: scale(1); transform-origin: -73.18px 2.72774px; animation: 1.5873s linear -0.761905s infinite normal forwards running beat-92464373-1d57-48e7-a72c-03ae88e02682;"><path d="M90.86-16.07L90.86-16.07L72.96-16.07L72.96-16.07Q72.45-1.54 81.68-1.54L81.68-1.54L81.68-1.54Q85.61-1.54 89.72-5.02L89.72-5.02L89.72-5.02Q90.57-4.50 91.03-3.25L91.03-3.25L91.03-3.25Q87.10 1.14 81.05 1.14L81.05 1.14L81.05 1.14Q67.15 1.14 67.15-15.22L67.15-15.22L67.15-15.22Q67.15-22.97 71.25-27.27L71.25-27.27L71.25-27.27Q75.35-31.58 80.83-31.58L80.83-31.58L80.83-31.58Q86.81-31.58 89.43-27.42L89.43-27.42L89.43-27.42Q92.06-23.26 92.06-16.59L92.06-16.59L92.06-16.59Q91.48-16.13 90.86-16.07zM80.71-29.30L80.71-29.30L80.71-29.30Q77.75-29.30 75.67-26.22L75.67-26.22L75.67-26.22Q73.59-23.14 73.13-18.35L73.13-18.35L80.20-18.35L80.20-18.35Q84.42-18.35 86.24-18.87L86.24-18.87L86.24-18.87Q86.24-23.54 84.82-26.42L84.82-26.42L84.82-26.42Q83.39-29.30 80.71-29.30" fill="#111111" stroke="none" stroke-width="none" transform="translate(-152.7849941253662,17.947741400978778)" style="fill: rgb(17, 17, 17);"></path></g><g class="path" style="transform: scale(1); transform-origin: -43.49px 2.72774px; animation: 1.5873s linear -0.666667s infinite normal forwards running beat-92464373-1d57-48e7-a72c-03ae88e02682;"><path d="M121.75-23.14L121.75-23.14L121.75-23.14Q120.56-21.89 116.11-21.95L116.11-21.95L116.11-21.95Q115.20-29.13 110.92-29.13L110.92-29.13L110.92-29.13Q107.56-29.13 105.22-25.25L105.22-25.25L105.22-25.25Q102.89-21.38 102.89-15.05L102.89-15.05L102.89-15.05Q102.89-8.55 104.94-5.04L104.94-5.04L104.94-5.04Q106.99-1.54 111.09-1.54L111.09-1.54L111.09-1.54Q115.42-1.54 119.59-5.07L119.59-5.07L119.59-5.07Q120.44-4.56 120.90-3.31L120.90-3.31L120.90-3.31Q116.74 1.14 110.47 1.14L110.47 1.14L110.47 1.14Q104.48 1.14 100.66-2.99L100.66-2.99L100.66-2.99Q96.84-7.13 96.84-15.16L96.84-15.16L96.84-15.16Q96.84-22.86 101.09-27.22L101.09-27.22L101.09-27.22Q105.34-31.58 110.81-31.58L110.81-31.58L110.81-31.58Q115.14-31.58 118.45-29.41L118.45-29.41L118.45-29.41Q121.75-27.25 121.75-23.14" fill="#111111" stroke="none" stroke-width="none" transform="translate(-152.7849941253662,17.947741400978778)" style="fill: rgb(17, 17, 17);"></path></g><g class="path" style="transform: scale(1); transform-origin: -6.12251px 2.72774px; animation: 1.5873s linear -0.571429s infinite normal forwards running beat-92464373-1d57-48e7-a72c-03ae88e02682;"><path d="M147.06-2.62L135.49-16.42L147.40-27.93L143.64-28.39L143.64-28.39Q143.41-29.30 143.64-30.61L143.64-30.61L143.64-30.61Q146.78-30.38 149.51-30.38L149.51-30.38L149.51-30.38Q151.73-30.38 155.44-30.55L155.44-30.55L155.44-30.55Q155.78-29.53 155.44-28.39L155.44-28.39L150.94-27.59L140.85-18.13L153.27-3.25L157.72-2.11L157.72-2.11Q157.95-1.20 157.72 0.17L157.72 0.17L157.72 0.17Q154.13 0 150.54 0L150.54 0L150.54 0Q148.09 0 143.30 0.11L143.30 0.11L143.30 0.11Q142.96-1.03 143.30-2.11L143.30-2.11L147.06-2.62" fill="#111111" stroke="none" stroke-width="none" transform="translate(-152.7849941253662,17.947741400978778)" style="fill: rgb(17, 17, 17);"></path></g><g class="path" style="transform: scale(1); transform-origin: -20.6875px -5.19226px; animation: 1.5873s linear -0.47619s infinite normal forwards running beat-92464373-1d57-48e7-a72c-03ae88e02682;"><path d="M134.86-36.14L134.86-36.14L134.86-2.91L139.48-2.05L139.48-2.05Q139.71-1.14 139.48 0.23L139.48 0.23L139.48 0.23Q135.89 0.06 132.18 0.06L132.18 0.06L132.18 0.06Q129.56 0.06 124.77 0.17L124.77 0.17L124.77 0.17Q124.43-0.91 124.77-2.05L124.77-2.05L129.28-2.68L129.28-2.68Q129.50-5.81 129.50-9.92L129.50-9.92L129.50-42.58L124.83-43.15L124.83-43.15Q124.60-44.00 124.83-45.32L124.83-45.32L124.83-45.32Q128.65-45.60 134.58-46.51L134.58-46.51L134.58-46.51Q135.09-45.94 135.15-45.37L135.15-45.37L135.15-45.37Q134.86-43.89 134.86-36.14" fill="#111111" stroke="none" stroke-width="none" transform="translate(-152.7849941253662,17.947741400978778)" style="fill: rgb(17, 17, 17);"></path></g><g class="path" style="transform: scale(1); transform-origin: 41.47px -5.19226px; animation: 1.5873s linear -0.380952s infinite normal forwards running beat-92464373-1d57-48e7-a72c-03ae88e02682;"><path d="M197.05-36.14L197.05-36.14L197.05-2.91L201.67-2.05L201.67-2.05Q201.89-1.14 201.67 0.23L201.67 0.23L201.67 0.23Q198.07 0.06 194.31 0.06L194.31 0.06L194.31 0.06Q191.69 0.06 186.90 0.17L186.90 0.17L186.90 0.17Q186.56-0.91 186.90-2.05L186.90-2.05L191.41-2.68L191.41-2.68Q191.63-5.81 191.63-9.92L191.63-9.92L191.63-42.58L186.96-43.15L186.96-43.15Q186.73-44.00 186.96-45.32L186.96-45.32L186.96-45.32Q190.89-45.60 196.76-46.51L196.76-46.51L196.76-46.51Q197.28-45.94 197.33-45.37L197.33-45.37L197.33-45.37Q197.05-43.89 197.05-36.14" fill="#111111" stroke="none" stroke-width="none" transform="translate(-152.7849941253662,17.947741400978778)" style="fill: rgb(17, 17, 17);"></path></g><g class="path" style="transform: scale(1); transform-origin: 66.2375px 2.72774px; animation: 1.5873s linear -0.285714s infinite normal forwards running beat-92464373-1d57-48e7-a72c-03ae88e02682;"><path d="M210.56-7.58L210.56-7.58L210.56-7.58Q210.56-4.62 211.64-3.39L211.64-3.39L211.64-3.39Q212.72-2.17 215.06-2.17L215.06-2.17L215.06-2.17Q216.77-2.17 218.85-3.22L218.85-3.22L218.85-3.22Q220.93-4.28 222.70-6.27L222.70-6.27L222.70-15.16L222.70-15.16Q216.83-14.82 213.69-13.08L213.69-13.08L213.69-13.08Q210.56-11.34 210.56-7.58zM222.70-17.21L222.70-17.21L222.70-20.12L222.70-20.12Q222.70-24.97 221.59-27.16L221.59-27.16L221.59-27.16Q220.48-29.36 217.91-29.36L217.91-29.36L217.91-29.36Q215.29-29.36 213.69-27.67L213.69-27.67L213.69-27.67Q212.10-25.99 211.53-21.95L211.53-21.95L211.53-21.95Q209.70-21.55 208.85-21.55L208.85-21.55L208.85-21.55Q206.63-21.55 206.23-23.14L206.23-23.14L206.23-23.14Q206.23-27.02 209.59-29.30L209.59-29.30L209.59-29.30Q212.95-31.58 217.97-31.58L217.97-31.58L217.97-31.58Q223.50-31.58 225.81-29.33L225.81-29.33L225.81-29.33Q228.11-27.07 228.11-21.26L228.11-21.26L228.11-5.19L228.11-5.19Q228.11-3.76 228.28-2.74L228.28-2.74L232.79-2.17L232.79-2.17Q233.02-1.31 232.79 0L232.79 0L232.79 0Q228.74 0.17 224.18 0.80L224.18 0.80L224.18 0.80Q223.72 0.34 223.61-0.34L223.61-0.34L223.33-4.28L223.33-4.28Q218.59 1.14 212.78 1.14L212.78 1.14L212.78 1.14Q209.19 1.14 207.17-0.91L207.17-0.91L207.17-0.91Q205.14-2.96 205.14-6.44L205.14-6.44L205.14-6.44Q205.14-11.69 209.90-14.36L209.90-14.36L209.90-14.36Q214.66-17.04 222.70-17.21" fill="#111111" stroke="none" stroke-width="none" transform="translate(-152.7849941253662,17.947741400978778)" style="fill: rgb(17, 17, 17);"></path></g><g class="path" style="transform: scale(1); transform-origin: 90.86px -0.207258px; animation: 1.5873s linear -0.190476s infinite normal forwards running beat-92464373-1d57-48e7-a72c-03ae88e02682;"><path d="M244.13-37.28L244.13-37.28L244.13-29.13L252.17-29.13L252.17-29.13Q252.28-28.44 252.28-28.10L252.28-28.10L252.28-28.10Q252.28-27.59 252.17-26.90L252.17-26.90L244.13-25.71L244.13-10.03L244.13-10.03Q244.13-5.81 244.90-4.08L244.90-4.08L244.90-4.08Q245.67-2.34 247.32-2.34L247.32-2.34L247.32-2.34Q248.80-2.34 251.94-3.53L251.94-3.53L251.94-3.53Q252.51-3.02 252.74-1.60L252.74-1.60L252.74-1.60Q251.03-0.57 250.14-0.09L250.14-0.09L250.14-0.09Q249.26 0.40 247.92 0.77L247.92 0.77L247.92 0.77Q246.58 1.14 245.10 1.14L245.10 1.14L245.10 1.14Q242.25 1.14 240.45-1.05L240.45-1.05L240.45-1.05Q238.66-3.25 238.66-7.75L238.66-7.75L238.66-26.39L234.67-26.90L234.67-26.90Q234.55-27.47 234.55-27.87L234.55-27.87L234.55-27.87Q234.55-28.33 234.67-29.13L234.67-29.13L234.67-29.13Q236.26-29.41 237.43-30.12L237.43-30.12L237.43-30.12Q238.60-30.84 239.40-32.12L239.40-32.12L239.40-32.12Q240.20-33.40 240.63-34.40L240.63-34.40L240.63-34.40Q241.05-35.40 241.68-37.28L241.68-37.28L241.68-37.28Q242.19-37.45 242.93-37.45L242.93-37.45L242.93-37.45Q243.62-37.45 244.13-37.28" fill="#111111" stroke="none" stroke-width="none" transform="translate(-152.7849941253662,17.947741400978778)" style="fill: rgb(17, 17, 17);"></path></g><g class="path" style="transform: scale(1); transform-origin: 115.83px 2.72774px; animation: 1.5873s linear -0.0952381s infinite normal forwards running beat-92464373-1d57-48e7-a72c-03ae88e02682;"><path d="M279.87-16.07L279.87-16.07L261.97-16.07L261.97-16.07Q261.46-1.54 270.69-1.54L270.69-1.54L270.69-1.54Q274.63-1.54 278.73-5.02L278.73-5.02L278.73-5.02Q279.58-4.50 280.04-3.25L280.04-3.25L280.04-3.25Q276.11 1.14 270.07 1.14L270.07 1.14L270.07 1.14Q256.16 1.14 256.16-15.22L256.16-15.22L256.16-15.22Q256.16-22.97 260.26-27.27L260.26-27.27L260.26-27.27Q264.37-31.58 269.84-31.58L269.84-31.58L269.84-31.58Q275.82-31.58 278.44-27.42L278.44-27.42L278.44-27.42Q281.07-23.26 281.07-16.59L281.07-16.59L281.07-16.59Q280.50-16.13 279.87-16.07zM269.72-29.30L269.72-29.30L269.72-29.30Q266.76-29.30 264.68-26.22L264.68-26.22L264.68-26.22Q262.60-23.14 262.14-18.35L262.14-18.35L269.21-18.35L269.21-18.35Q273.43-18.35 275.25-18.87L275.25-18.87L275.25-18.87Q275.25-23.54 273.83-26.42L273.83-26.42L273.83-26.42Q272.40-29.30 269.72-29.30" fill="#111111" stroke="none" stroke-width="none" transform="translate(-152.7849941253662,17.947741400978778)" style="fill: rgb(17, 17, 17);"></path></g><g class="path" style="transform: scale(1); transform-origin: 143.7px 2.27274px; animation: 1.5873s linear 0s infinite normal forwards running beat-92464373-1d57-48e7-a72c-03ae88e02682;"><path d="M295.66-30.44L295.66-30.44L295.54-24.57L295.54-24.57Q296.97-27.19 299.51-29.38L299.51-29.38L299.51-29.38Q302.04-31.58 304.32-31.58L304.32-31.58L304.32-31.58Q306.09-31.58 307.46-31.18L307.46-31.18L307.46-31.18Q307.91-30.44 307.91-29.24L307.91-29.24L307.91-29.24Q307.91-27.36 307.12-25.48L307.12-25.48L307.12-25.48Q305.06-26.05 303.18-26.05L303.18-26.05L303.18-26.05Q298.51-26.05 295.49-21.49L295.49-21.49L295.37-11.51L295.37-2.91L301.70-2.05L301.70-2.05Q301.93-1.14 301.70 0.23L301.70 0.23L301.70 0.23Q298.11 0.06 293.49 0.06L293.49 0.06L293.49 0.06Q290.02 0.06 285.23 0.17L285.23 0.17L285.23 0.17Q284.89-0.91 285.23-2.05L285.23-2.05L289.73-2.68L289.73-2.68Q289.96-5.81 289.96-9.92L289.96-9.92L289.96-25.54L289.96-25.54Q289.96-26.68 289.79-27.64L289.79-27.64L285.28-28.21L285.28-28.21Q285.06-29.07 285.28-30.38L285.28-30.38L285.28-30.38Q289.22-30.67 295.09-31.58L295.09-31.58L295.09-31.58Q295.60-31.01 295.66-30.44" fill="#111111" stroke="none" stroke-width="none" transform="translate(-152.7849941253662,17.947741400978778)" style="fill: rgb(17, 17, 17);"></path></g></g>
</g>
</g>
<style id="beat-92464373-1d57-48e7-a72c-03ae88e02682" data-anikit="">@keyframes beat-92464373-1d57-48e7-a72c-03ae88e02682
{
  0% {
    animation-timing-function: cubic-bezier(0.1028,0.2484,0.1372,0.849);
    transform: scale(1);
  }
  34% {
    animation-timing-function: cubic-bezier(0.7116,0.2095,0.8159,0.6876);
    transform: scale(1.2);
  }
  68% {
    animation-timing-function: cubic-bezier(0.1475,0.2888,0.294,0.883);
    transform: scale(1.0268);
  }
  84% {
    animation-timing-function: cubic-bezier(0.8176,0.2193,0.867,0.6889);
    transform: scale(1.0932);
  }
  100% {
    transform: scale(1);
  }
}</style></svg>